<?xml version="1.0"?>
<svg width="64" height="64" xmlns="http://www.w3.org/2000/svg" xmlns:svg="http://www.w3.org/2000/svg" enable-background="new 0 0 64 64" version="1.1" xml:space="preserve">
 <!-- Created with SVG-edit - https://github.com/SVG-Edit/svgedit-->
 <g class="layer">
  <title>Layer 1</title>
  <path class="st0" d="m52.7,64l-41.4,0c-6.2,0 -11.3,-5.1 -11.3,-11.3l0,-41.4c0,-6.2 5.1,-11.3 11.3,-11.3l41.3,0c6.3,0 11.4,5.1 11.4,11.3l0,41.3c0,6.3 -5.1,11.4 -11.3,11.4z" fill="#ffffff" id="svg_67"/>
  <polygon class="cls-3" fill="#1dade5" id="svg_10" points="31.774989537056094,11.014595739897414 20.199644804447814,18.210110068661464 31.774989537056094,25.35372083737942 31.774989537056094,11.014595739897414" stroke="#000000" stroke-opacity="0"/>
  <polygon class="cls-3" fill="#1dade5" id="svg_11" points="7.1639693161743665,17.481120819991318 31.774989537056094,32.55041684924918 31.774989537056094,41.831447220380966 14.41138872959639,31.193886897426996 14.41138872959639,52.46901102816208 7.1639693161743665,48.089182693433976 7.1639693161743665,17.481120819991318" stroke="#000000" stroke-opacity="0"/>
  <polygon class="cls-4" fill="#0068b6" id="svg_12" points="31.774989537056094,41.831447220380966 14.41138872959639,52.46901102816208 14.41138872959639,31.193886897426996 31.774989537056094,41.831447220380966"/>
  <polygon class="cls-4" fill="#0068b6" id="svg_13" points="31.774989537056094,11.014595739897414 43.35150168675894,18.210110068661464 31.774989537056094,25.35372083737942 31.774989537056094,11.014595739897414" stroke="#000000" stroke-opacity="0" transform="matrix(1 0 0 1 0 0)"/>
  <polygon class="cls-4" fill="#0068b6" id="svg_14" points="56.387194599168126,17.481120819991318 31.774989537056094,32.55041684924918 31.774989537056094,41.831447220380966 49.139771700918956,31.14198388188514 49.139771700918956,52.46901102816208 56.387194599168126,48.089182693433976 56.387194599168126,17.481120819991318" stroke="#000000" stroke-opacity="0"/>
  <polygon class="cls-3" fill="#1dade5" id="svg_15" points="31.774989537056094,41.831447220380966 49.139771700918956,52.46901102816208 49.139771700918956,31.14198388188514 31.774989537056094,41.831447220380966" stroke="#000000" stroke-opacity="0"/>
 </g>
</svg>