<?xml version="1.0"?>
<svg width="562" height="238" xmlns="http://www.w3.org/2000/svg" xmlns:svg="http://www.w3.org/2000/svg" enable-background="new 0 0 562 238" version="1.1" xml:space="preserve">
 <!-- Created with SVG-edit - https://github.com/SVG-Edit/svgedit-->

 <g class="layer">
  <title>Layer 1</title>
  <rect class="st0" fill="#4d4d4d" height="238" id="svg_88" width="562" x="0" y="0"/>
  <g class="st3" id="svg_61" transform="matrix(1 0 0 1 0 -0.5)">
   <path class="st4" d="m19.2,8.7l0,16.7l17.9,-6.7l0,-16.7l-17.9,6.7z" fill="none" id="svg_62" stroke="#707070"/>
   <path class="st4" d="m19.2,8.7l0,16.7l-18.2,-6.7l0,-16.7l18.2,6.7z" fill="none" id="svg_63" stroke="#707070"/>
   <path class="st4" d="m90.9,8.7l0,16.7l-17.9,-6.7l0,-16.7l17.9,6.7z" fill="none" id="svg_64" stroke="#707070"/>
   <path class="st4" d="m127.4,8.7l0,16.7l17.9,-6.7l0,-16.7l-17.9,6.7z" fill="none" id="svg_65" stroke="#707070"/>
   <path class="st4" d="m19.2,25.5l0,16.7l-18.2,-6.7l0,-16.7l18.2,6.7z" fill="none" id="svg_66" stroke="#707070"/>
   <path class="st4" d="m19.2,58.7l0,17.1l17.9,-6.9l0,-17.1l-17.9,6.9z" fill="none" id="svg_67" stroke="#707070"/>
   <path class="st4" d="m55.4,25.5l0,16.7l17.6,-6.7l0,-16.7l-17.6,6.7z" fill="none" id="svg_68" stroke="#707070"/>
   <path class="st4" d="m90.9,42.3l0,16.5l-17.9,-6.7l0,-16.5l17.9,6.7z" fill="none" id="svg_69" stroke="#707070"/>
   <path class="st4" d="m90.9,96l0,16.5l-17.9,-6.6l0,-16.5l17.9,6.6z" fill="none" id="svg_70" stroke="#707070"/>
   <path class="st4" d="m55.4,25.6l0,16.9l-18.2,-6.8l0,-16.9l18.2,6.8z" fill="none" id="svg_71" stroke="#707070"/>
   <path class="st4" d="m55.4,42.4l0,16.6l-18.2,-6.7l0,-16.7l18.2,6.8z" fill="none" id="svg_72" stroke="#707070"/>
   <path class="st4" d="m127.4,42.3l0,16.5l17.9,-6.6l0,-16.6l-17.9,6.7z" fill="none" id="svg_73" stroke="#707070"/>
   <path class="st4" d="m163.3,25.5l0,16.7l-17.9,-6.7l0,-16.7l17.9,6.7z" fill="none" id="svg_74" stroke="#707070"/>
   <path class="st4" d="m127.4,75.5l0,16.9l17.9,-6.8l0,-17l-17.9,6.9z" fill="none" id="svg_75" stroke="#707070"/>
   <path class="st4" d="m163.3,42.2l0,17.1l-17.9,-6.9l0,-16.9l17.9,6.7z" fill="none" id="svg_76" stroke="#707070"/>
   <path class="st4" d="m90.9,58.7l0,17.1l17.9,-6.9l0,-17.1l-17.9,6.9z" fill="none" id="svg_77" stroke="#707070"/>
   <path class="st4" d="m199.4,25.5l0,16.7l-18.2,-6.7l0,-16.7l18.2,6.7z" fill="none" id="svg_78" stroke="#707070"/>
   <path class="st4" d="m127.4,25.5l0,16.7l-18.5,-6.7l0,-16.7l18.5,6.7z" fill="none" id="svg_79" stroke="#707070"/>
   <path class="st4" d="m199.4,58.7l0,17.1l-18.2,-6.9l0,-17.1l18.2,6.9z" fill="none" id="svg_80" stroke="#707070"/>
   <path class="st4" d="m163.3,8.7l0,16.5l17.9,-6.6l0,-16.6l-17.9,6.7z" fill="none" id="svg_81" stroke="#707070"/>
  </g>
  <g class="st3" id="svg_36" transform="matrix(1 0 0 1 0 -0.5)">
   <path class="st4" d="m235.8,8.7l0,16.7l17.9,-6.7l0,-16.7l-17.9,6.7z" fill="none" id="svg_37" stroke="#707070"/>
   <path class="st4" d="m235.8,8.7l0,16.7l-18.2,-6.7l0,-16.7l18.2,6.7z" fill="none" id="svg_38" stroke="#707070"/>
   <path class="st4" d="m307.5,8.7l0,16.7l-17.9,-6.7l0,-16.7l17.9,6.7z" fill="none" id="svg_39" stroke="#707070"/>
   <path class="st4" d="m343.9,8.7l0,16.7l17.9,-6.7l0,-16.7l-17.9,6.7z" fill="none" id="svg_40" stroke="#707070"/>
   <path class="st4" d="m199.6,42.3l0,16.5l17.9,-6.6l0,-16.6l-17.9,6.7z" fill="none" id="svg_41" stroke="#707070"/>
   <path class="st4" d="m235.8,25.5l0,16.7l-18.2,-6.7l0,-16.7l18.2,6.7z" fill="none" id="svg_42" stroke="#707070"/>
   <path class="st4" d="m235.8,58.7l0,17.1l17.9,-6.9l0,-17.1l-17.9,6.9z" fill="none" id="svg_43" stroke="#707070"/>
   <path class="st4" d="m271.9,25.5l0,16.7l17.6,-6.7l0,-16.7l-17.6,6.7z" fill="none" id="svg_44" stroke="#707070"/>
   <path class="st4" d="m307.5,42.3l0,16.5l-17.9,-6.6l0,-16.6l17.9,6.7z" fill="none" id="svg_45" stroke="#707070"/>
   <path class="st4" d="m307.5,76.8l0,16.5l-17.9,-6.6l0,-16.5l17.9,6.6z" fill="none" id="svg_46" stroke="#707070"/>
   <path class="st4" d="m271.9,25.6l0,16.9l-18.2,-6.8l0,-16.9l18.2,6.8z" fill="none" id="svg_47" stroke="#707070"/>
   <path class="st4" d="m271.9,42.4l0,16.6l-18.2,-6.7l0,-16.7l18.2,6.8z" fill="none" id="svg_48" stroke="#707070"/>
   <path class="st4" d="m343.9,42.3l0,16.5l17.9,-6.6l0,-16.6l-17.9,6.7z" fill="none" id="svg_49" stroke="#707070"/>
   <path class="st4" d="m379.8,25.5l0,16.7l-17.9,-6.7l0,-16.7l17.9,6.7z" fill="none" id="svg_50" stroke="#707070"/>
   <path class="st4" d="m343.9,75.5l0,16.9l17.9,-6.8l0,-17l-17.9,6.9z" fill="none" id="svg_51" stroke="#707070"/>
   <path class="st4" d="m379.8,42.2l0,17.1l-17.9,-6.9l0,-16.9l17.9,6.7z" fill="none" id="svg_52" stroke="#707070"/>
   <path class="st4" d="m307.5,58.7l0,17.1l17.9,-6.9l0,-17.1l-17.9,6.9z" fill="none" id="svg_53" stroke="#707070"/>
   <path class="st4" d="m415.9,25.5l0,16.7l-18.2,-6.7l0,-16.7l18.2,6.7z" fill="none" id="svg_54" stroke="#707070"/>
   <path class="st4" d="m379.8,58.7l0,17.1l17.9,-6.9l0,-17.1l-17.9,6.9z" fill="none" id="svg_55" stroke="#707070"/>
   <path class="st4" d="m379.8,98.4l0,17.1l17.9,-6.9l0,-17.1l-17.9,6.9z" fill="none" id="svg_56" stroke="#707070"/>
   <path class="st4" d="m343.9,25.5l0,16.7l-18.5,-6.7l0,-16.7l18.5,6.7z" fill="none" id="svg_57" stroke="#707070"/>
   <path class="st4" d="m415.9,58.7l0,17.1l-18.2,-6.9l0,-17.1l18.2,6.9z" fill="none" id="svg_58" stroke="#707070"/>
   <path class="st4" d="m455.5,113.5l0,17.1l-18.2,-6.9l0,-17.1l18.2,6.9z" fill="none" id="svg_59" stroke="#707070"/>
   <path class="st4" d="m379.8,8.7l0,16.5l17.9,-6.6l0,-16.6l-17.9,6.7z" fill="none" id="svg_60" stroke="#707070"/>
  </g>
  <g class="st5" id="svg_30" transform="translate(0 -0.5)">
   <g class="st3" id="svg_31">
    <path class="st4" d="m452.9,8.7l0,16.7l-18.2,-6.7l0,-16.7l18.2,6.7z" fill="none" id="svg_32" stroke="#707070"/>
    <path class="st4" d="m416.8,42.3l0,16.5l17.9,-6.6l0,-16.6l-17.9,6.7z" fill="none" id="svg_33" stroke="#707070"/>
    <path class="st4" d="m416.8,75.2l0,16.5l17.9,-6.6l0,-16.5l-17.9,6.6z" fill="none" id="svg_34" stroke="#707070"/>
    <path class="st4" d="m452.9,25.5l0,16.7l-18.2,-6.7l0,-16.7l18.2,6.7z" fill="none" id="svg_35" stroke="#707070"/>
   </g>
  </g>
  <g class="st3" id="svg_16" transform="matrix(1 0 0 1 0 0) translate(0 -0.5)">
   <path class="st4" d="m452.8,8.7l0,16.7l17.9,-6.7l0,-16.7l-17.9,6.7z" fill="none" id="svg_17" stroke="#707070"/>
   <path class="st4" d="m452.8,8.7l0,16.7l-18.2,-6.7l0,-16.7l18.2,6.7z" fill="none" id="svg_18" stroke="#707070"/>
   <path class="st4" d="m524.5,8.7l0,16.7l-17.9,-6.7l0,-16.7l17.9,6.7z" fill="none" id="svg_19" stroke="#707070"/>
   <path class="st4" d="m452.8,25.5l0,16.7l-18.2,-6.7l0,-16.7l18.2,6.7z" fill="none" id="svg_20" stroke="#707070"/>
   <path class="st4" d="m452.8,58.7l0,17.1l17.9,-6.9l0,-17.1l-17.9,6.9z" fill="none" id="svg_21" stroke="#707070"/>
   <path class="st4" d="m489,25.5l0,16.7l17.6,-6.7l0,-16.7l-17.6,6.7z" fill="none" id="svg_22" stroke="#707070"/>
   <path class="st4" d="m524.5,42.3l0,16.5l-17.9,-6.6l0,-16.6l17.9,6.7z" fill="none" id="svg_23" stroke="#707070"/>
   <path class="st4" d="m524.5,96l0,16.5l-17.9,-6.6l0,-16.5l17.9,6.6z" fill="none" id="svg_24" stroke="#707070"/>
   <path class="st4" d="m489,25.6l0,16.9l-18.2,-6.8l0,-16.9l18.2,6.8z" fill="none" id="svg_25" stroke="#707070"/>
   <path class="st4" d="m489,42.4l0,16.6l-18.2,-6.7l0,-16.7l18.2,6.8z" fill="none" id="svg_26" stroke="#707070"/>
   <path class="st4" d="m524.5,58.7l0,17.1l17.9,-6.9l0,-17.1l-17.9,6.9z" fill="none" id="svg_27" stroke="#707070"/>
   <path class="st4" d="m561,25.5l0,16.7l-18.5,-6.7l0,-16.7l18.5,6.7z" fill="none" id="svg_28" stroke="#707070"/>
   <path class="st4" d="m561,77.5l0,16.7l-18.5,-6.7l0,-16.7l18.5,6.7z" fill="none" id="svg_29" stroke="#707070"/>
  </g>
  <g id="svg_9" transform="matrix(1 0 0 1 0 0) translate(4 0.5) translate(39 0.5) matrix(1 0 0 1 0 -0.5)">
   <path class="st6" d="m244.8,127.6c-1.7,0 -3.1,-0.2 -4.2,-0.7s-1.9,-1.1 -2.5,-1.8c-0.5,-0.7 -0.8,-1.5 -0.9,-2.4c0,-0.1 0,-0.3 0.1,-0.3c0.1,-0.1 0.2,-0.2 0.4,-0.2l4.3,0c0.2,0 0.4,0 0.5,0.1c0.1,0.1 0.3,0.2 0.4,0.3c0.2,0.1 0.3,0.2 0.5,0.3c0.2,0.1 0.4,0.1 0.5,0.2c0.2,0 0.4,0 0.7,0c0.5,0 0.9,-0.1 1.2,-0.2c0.3,-0.1 0.5,-0.3 0.5,-0.5c0,-0.2 -0.1,-0.3 -0.3,-0.5c-0.2,-0.1 -0.5,-0.2 -0.9,-0.3c-0.4,-0.1 -1,-0.2 -1.8,-0.3c-1.2,-0.2 -2.2,-0.4 -3.1,-0.8c-0.9,-0.4 -1.6,-0.9 -2.1,-1.6c-0.5,-0.7 -0.7,-1.6 -0.7,-2.6c0,-1 0.3,-2 0.9,-2.7c0.6,-0.8 1.4,-1.4 2.4,-1.9c1.1,-0.4 2.3,-0.7 3.7,-0.7c1.1,0 2.2,0.2 3,0.5c0.9,0.3 1.6,0.7 2.2,1.2c0.6,0.5 1.1,1 1.4,1.5c0.3,0.5 0.5,1.1 0.5,1.6c0,0.1 -0.1,0.3 -0.2,0.4c-0.1,0.1 -0.2,0.1 -0.3,0.1l-4.6,0c-0.2,0 -0.4,0 -0.5,-0.1c-0.1,-0.1 -0.3,-0.2 -0.4,-0.3c-0.1,-0.1 -0.2,-0.2 -0.4,-0.3c-0.2,-0.1 -0.5,-0.2 -0.8,-0.2c-0.4,0 -0.7,0.1 -0.8,0.2c-0.2,0.1 -0.3,0.3 -0.3,0.5c0,0.1 0.1,0.3 0.2,0.4c0.1,0.1 0.4,0.2 0.8,0.3c0.4,0.1 0.9,0.2 1.6,0.3c1.5,0.2 2.7,0.5 3.7,0.9c0.9,0.4 1.6,0.9 2,1.6c0.4,0.7 0.6,1.5 0.6,2.5c0,1.1 -0.3,2.1 -1,2.9c-0.7,0.8 -1.6,1.4 -2.7,1.9c-0.8,0.5 -2.1,0.7 -3.6,0.7l0,0z" fill="#bfbfbf" id="svg_10" stroke="#2d2d2d"/>
   <path class="st6" d="m254.5,127.4c-0.2,0 -0.3,-0.1 -0.4,-0.2c-0.1,-0.1 -0.2,-0.3 -0.2,-0.4l0,-15c0,-0.2 0.1,-0.3 0.2,-0.4c0.1,-0.1 0.3,-0.2 0.4,-0.2l4.1,0c0.2,0 0.3,0.1 0.4,0.2c0.1,0.1 0.2,0.3 0.2,0.4l0,15c0,0.2 -0.1,0.3 -0.2,0.4c-0.1,0.1 -0.3,0.2 -0.4,0.2l-4.1,0z" fill="#bfbfbf" id="svg_11" stroke="#2d2d2d"/>
   <path class="st6" d="m263.1,127.4c-0.2,0 -0.3,-0.1 -0.4,-0.2s-0.2,-0.3 -0.2,-0.4l0,-10.7c0,-0.2 0.1,-0.3 0.2,-0.4c0.1,-0.1 0.3,-0.2 0.4,-0.2l4.1,0c0.2,0 0.3,0.1 0.4,0.2s0.2,0.3 0.2,0.4l0,10.7c0,0.2 -0.1,0.3 -0.2,0.4c-0.1,0.1 -0.3,0.2 -0.4,0.2l-4.1,0zm0.1,-13.2c-0.2,0 -0.3,-0.1 -0.4,-0.2c-0.1,-0.1 -0.2,-0.3 -0.2,-0.4l0,-2.8c0,-0.2 0.1,-0.3 0.2,-0.4c0.1,-0.1 0.3,-0.2 0.4,-0.2l3.9,0c0.2,0 0.3,0.1 0.4,0.2c0.1,0.1 0.2,0.3 0.2,0.4l0,2.8c0,0.2 -0.1,0.3 -0.2,0.4c-0.1,0.1 -0.3,0.2 -0.4,0.2l-3.9,0z" fill="#bfbfbf" id="svg_12" stroke="#2d2d2d"/>
   <path class="st6" d="m276.1,127.6c-1.2,0 -2.2,-0.2 -3.2,-0.6c-0.9,-0.4 -1.7,-1 -2.3,-1.8s-0.9,-1.7 -1,-2.9c0,-0.2 0,-0.5 0,-0.9c0,-0.4 0,-0.7 0,-0.9c0.1,-1.1 0.4,-2.1 0.9,-2.9c0.6,-0.8 1.3,-1.4 2.3,-1.8c1,-0.4 2,-0.6 3.2,-0.6c1.2,0 2.2,0.2 3.1,0.5c0.9,0.3 1.5,0.8 2.1,1.3c0.5,0.5 0.9,1 1.2,1.5c0.3,0.5 0.4,0.9 0.4,1.2c0,0.2 0,0.3 -0.2,0.4c-0.1,0.1 -0.3,0.2 -0.4,0.2l-4.5,0c-0.2,0 -0.3,0 -0.4,-0.1c-0.1,-0.1 -0.2,-0.2 -0.3,-0.3c-0.1,-0.2 -0.2,-0.4 -0.3,-0.5c-0.1,-0.1 -0.3,-0.2 -0.5,-0.2c-0.4,0 -0.6,0.1 -0.7,0.4c-0.1,0.3 -0.2,0.6 -0.2,1.1c0,0.7 0,1.2 0,1.6c0,0.5 0.1,0.9 0.2,1.1c0.1,0.2 0.4,0.3 0.7,0.3c0.3,0 0.5,-0.1 0.5,-0.2c0.1,-0.1 0.2,-0.3 0.3,-0.5c0.1,-0.1 0.1,-0.2 0.3,-0.3c0.1,-0.1 0.2,-0.1 0.4,-0.1l4.5,0c0.2,0 0.3,0.1 0.4,0.2c0.1,0.1 0.2,0.3 0.2,0.4c0,0.2 -0.1,0.5 -0.3,0.8c-0.1,0.4 -0.4,0.7 -0.7,1.1c-0.3,0.4 -0.7,0.8 -1.2,1.2c-0.5,0.4 -1.2,0.7 -1.9,0.9c-0.7,0.3 -1.6,0.4 -2.6,0.4l0,0z" fill="#bfbfbf" id="svg_13" stroke="#2d2d2d"/>
   <path class="st6" d="m290.5,127.6c-2,0 -3.6,-0.5 -4.8,-1.5c-1.2,-1 -1.8,-2.6 -1.8,-4.7c0,0 0,-0.1 0,-0.1c0,0 0,-0.1 0,-0.1c0,-1.3 0.3,-2.4 0.8,-3.3c0.5,-0.9 1.3,-1.6 2.3,-2c1,-0.5 2.1,-0.7 3.4,-0.7c1.5,0 2.7,0.3 3.7,0.9c1,0.6 1.7,1.3 2.1,2.3c0.5,0.9 0.7,2 0.7,3.1l0,0.7c0,0.2 -0.1,0.3 -0.2,0.4c-0.1,0.1 -0.3,0.2 -0.4,0.2l-6.8,0c0,0 0,0 0,0c0,0 0,0 0,0.1c0,0.3 0,0.6 0.1,0.8c0.1,0.2 0.2,0.4 0.3,0.5c0.1,0.1 0.3,0.2 0.5,0.2c0.1,0 0.2,0 0.2,0c0.1,0 0.1,-0.1 0.2,-0.1c0.1,-0.1 0.2,-0.2 0.2,-0.2c0.1,-0.1 0.3,-0.2 0.3,-0.3c0.1,0 0.2,-0.1 0.4,-0.1l4.3,0c0.2,0 0.3,0 0.4,0.1c0.1,0.1 0.2,0.2 0.1,0.4c0,0.3 -0.2,0.6 -0.4,1.1c-0.2,0.4 -0.6,0.8 -1.1,1.2s-1.1,0.7 -1.9,1c-0.7,0 -1.6,0.1 -2.6,0.1l0,0zm-1,-7.7l1.8,0l0,0c0,-0.3 0,-0.6 -0.1,-0.8c-0.1,-0.2 -0.2,-0.4 -0.3,-0.5c-0.1,-0.1 -0.3,-0.2 -0.5,-0.2s-0.4,0.1 -0.5,0.2c-0.1,0.1 -0.2,0.2 -0.3,0.5c0,0.2 -0.1,0.5 -0.1,0.8l0,0z" fill="#bfbfbf" id="svg_14" stroke="#2d2d2d"/>
   <path class="st6" d="m299.2,127.4c-0.2,0 -0.3,-0.1 -0.4,-0.2c-0.1,-0.1 -0.2,-0.3 -0.2,-0.4l0,-10.7c0,-0.2 0.1,-0.3 0.2,-0.4c0.1,-0.1 0.3,-0.2 0.4,-0.2l4,0c0.2,0 0.3,0.1 0.4,0.2c0.1,0.1 0.2,0.3 0.2,0.4l0,0.8c0.5,-0.4 1,-0.8 1.6,-1c0.6,-0.3 1.3,-0.4 1.9,-0.4l1.1,0c0.2,0 0.3,0.1 0.4,0.2s0.2,0.3 0.2,0.4l0,3.6c0,0.2 -0.1,0.3 -0.2,0.4c-0.1,0.1 -0.3,0.2 -0.4,0.2l-3,0c-0.5,0 -0.8,0.1 -1,0.3c-0.2,0.2 -0.3,0.6 -0.3,1l0,5.1c0,0.2 -0.1,0.3 -0.2,0.4c-0.1,0.1 -0.3,0.2 -0.4,0.2l-4.3,0l0,0.1z" fill="#bfbfbf" id="svg_15" stroke="#2d2d2d"/>
  </g>
  <g id="svg_1" transform="matrix(1 0 0 1 0 0) translate(4 0.5) translate(39 0.5) matrix(1 0 0 1 0 -0.5)">
   <g id="svg_2">
    <path class="st7" d="m237.5,89.9l4.9,0l1.9,7.3l1.9,-7.3l4.9,0l0,12l-3,0l0,-9.2l-2.3,9.2l-2.8,0l-2.3,-9.2l0,9.2l-3,0l0,-12l-0.2,0z" fill="#bfbfbf" id="svg_3" stroke="#2d2d2d"/>
    <path class="st7" d="m253.5,89.9l3.7,0l0,12l-3.7,0l0,-12z" fill="#bfbfbf" id="svg_4" stroke="#2d2d2d"/>
    <path class="st7" d="m259.9,89.9l3.5,0l4.5,6.6l0,-6.6l3.5,0l0,12l-3.5,0l-4.5,-6.6l0,6.6l-3.5,0l0,-12z" fill="#bfbfbf" id="svg_5" stroke="#2d2d2d"/>
    <path class="st7" d="m279.9,97.6l0,-2.5l5.7,0l0,5.1c-1.1,0.7 -2.1,1.3 -2.9,1.5c-0.8,0.3 -1.8,0.4 -3,0.4c-1.4,0 -2.6,-0.2 -3.5,-0.7s-1.6,-1.2 -2.1,-2.2s-0.7,-2.1 -0.7,-3.3c0,-1.3 0.3,-2.5 0.8,-3.4c0.5,-1 1.3,-1.7 2.4,-2.2c0.8,-0.4 1.9,-0.6 3.3,-0.6c1.3,0 2.3,0.1 3,0.4c0.7,0.2 1.2,0.6 1.6,1.1c0.4,0.5 0.8,1.1 1,1.9l-3.6,0.6c-0.1,-0.5 -0.4,-0.8 -0.8,-1c-0.4,-0.2 -0.8,-0.4 -1.3,-0.4c-0.8,0 -1.5,0.3 -1.9,0.8c-0.5,0.6 -0.7,1.5 -0.7,2.7c0,1.3 0.2,2.2 0.7,2.8c0.5,0.6 1.2,0.8 2,0.8c0.4,0 0.8,-0.1 1.2,-0.2c0.4,-0.1 0.8,-0.3 1.3,-0.6l0,-1.1l-2.5,0l0,0.1z" fill="#bfbfbf" id="svg_6" stroke="#2d2d2d"/>
    <path class="st7" d="m287.9,89.9l5.5,0c1.1,0 2,0.1 2.6,0.4c0.7,0.3 1.2,0.7 1.7,1.3c0.4,0.6 0.8,1.2 1,1.9c0.2,0.7 0.3,1.5 0.3,2.3c0,1.3 -0.1,2.3 -0.4,3c-0.3,0.7 -0.7,1.3 -1.2,1.8c-0.5,0.5 -1.1,0.8 -1.7,1c-0.8,0.2 -1.6,0.3 -2.2,0.3l-5.5,0l0,-12l-0.1,0zm3.7,2.7l0,6.6l0.9,0c0.8,0 1.3,-0.1 1.7,-0.3c0.3,-0.2 0.6,-0.5 0.8,-0.9c0.2,-0.4 0.3,-1.1 0.3,-2.1c0,-1.3 -0.2,-2.1 -0.6,-2.6c-0.4,-0.5 -1.1,-0.7 -2.1,-0.7l-1,0z" fill="#bfbfbf" id="svg_7" stroke="#2d2d2d"/>
    <path class="st7" d="m307.6,99.9l-4.2,0l-0.6,2l-3.8,0l4.5,-12l4.1,0l4.5,12l-3.9,0l-0.6,-2zm-0.8,-2.6l-1.3,-4.3l-1.3,4.3l2.6,0z" fill="#bfbfbf" id="svg_8" stroke="#2d2d2d"/>
   </g>
  </g>
  <polygon class="cls-3" fill="#1dade5" id="svg_214" points="229.87374877929688,88.59307861328125 218.56976318359375,95.61991882324219 229.87374877929688,102.5960693359375 229.87374877929688,88.59307861328125" stroke="#2d2d2d"/>
  <polygon class="cls-3" fill="#1dade5" id="svg_213" points="205.8396759033203,94.90801239013672 229.87374877929688,109.62405395507812 229.87374877929688,118.6875228881836 212.9171905517578,108.29932403564453 212.9171905517578,129.0757293701172 205.8396759033203,124.7985610961914 205.8396759033203,94.90801239013672" stroke="#2d2d2d"/>
  <polygon class="cls-4" fill="#0068b6" id="svg_212" points="229.87374877929688,118.6875228881836 212.9171905517578,129.0757293701172 212.9171905517578,108.29932403564453 229.87374877929688,118.6875228881836" stroke="#2d2d2d"/>
  <polygon class="cls-4" fill="#0068b6" id="svg_211" points="229.87374877929688,88.59307861328125 241.1789093017578,95.61991882324219 229.87374877929688,102.5960693359375 229.87374877929688,88.59307861328125" stroke="#2d2d2d"/>
  <polygon class="cls-4" fill="#0068b6" id="svg_210" points="253.9090118408203,94.90801239013672 229.87374877929688,109.62405395507812 229.87374877929688,118.6875228881836 246.83148193359375,108.2486343383789 246.83148193359375,129.0757293701172 253.9090118408203,124.7985610961914 253.9090118408203,94.90801239013672" stroke="#2d2d2d"/>
  <polygon class="cls-3" fill="#1dade5" id="svg_209" points="229.87374877929688,118.6875228881836 246.83148193359375,129.0757293701172 246.83148193359375,108.2486343383789 229.87374877929688,118.6875228881836" stroke="#2d2d2d"/>
 </g>
</svg>