<?xml version="1.0"?>
<svg width="480" height="480" xmlns="http://www.w3.org/2000/svg" xmlns:svg="http://www.w3.org/2000/svg" data-name="图层 1">
 <!-- Created with SVG-edit - https://github.com/SVG-Edit/svgedit-->
 <g class="layer">
  <title>Layer 1</title>
  <path class="cls-1" d="m187.82,82.36l106.29,0a16.72,16.72 0 0 1 16.73,16.73l0,106.38a16.72,16.72 0 0 1 -16.73,16.73l-106.29,0a16.72,16.72 0 0 1 -16.73,-16.73l0,-106.39a16.78,16.78 0 0 1 16.73,-16.73l0,0.01z" fill="#7f7f7f" id="svg_20"/>
  <path class="cls-2" d="m226.89,277.51a2.18,2.18 0 0 0 -2.17,2.17l0,0l0,21.65a2.17,2.17 0 1 0 4.33,0l0,-21.65a2.12,2.12 0 0 0 -2.16,-2.17l0,-0.01z" fill="#999999" id="svg_19"/>
  <path class="cls-2" d="m283.67,277.51l-5.22,0a12.99,12.99 0 1 0 0,25.98l5.22,0a2.17,2.17 0 1 0 0,-4.33l-5.22,0a8.66,8.66 0 0 1 -0.59,-17.32l5.71,0a2.18,2.18 0 0 0 2.17,-2.17c0.1,-1.18 -0.79,-2.16 -2.07,-2.16l0,0l-0.01,0.01z" fill="#999999" id="svg_18"/>
  <path class="cls-2" d="m283.67,288.34l-6.3,0a2.17,2.17 0 1 0 0,4.33l6.3,0a2.18,2.18 0 0 0 2.17,-2.17a2.12,2.12 0 0 0 -2.17,-2.17l0,0l0,0.01z" fill="#999999" id="svg_17"/>
  <path class="cls-2" d="m183.68,303.49l-10.53,0a2.04,2.04 0 0 1 -2.07,-2.17a2.08,2.08 0 0 1 2.07,-2.07l10.53,0a3.3,3.3 0 1 0 0.1,-6.59l-5.12,0a7.52,7.52 0 0 1 -7.48,-7.68a7.48,7.48 0 0 1 7.49,-7.49l8.56,0a2.04,2.04 0 0 1 2.07,2.17a2.08,2.08 0 0 1 -2.07,2.06l-8.56,0a3.3,3.3 0 1 0 -0.1,6.59l5.12,0a7.52,7.52 0 0 1 7.48,7.68c0,4.03 -3.34,7.38 -7.48,7.48l-0.01,0.01l0,0.01z" fill="#999999" id="svg_16"/>
  <path class="cls-2" d="m254.54,297.68a8.67,8.67 0 0 1 -9.55,-14.47a8.82,8.82 0 0 1 9.55,0a2.12,2.12 0 0 0 2.76,-0.29l0,0a2.08,2.08 0 0 0 0,-3.05l-0.29,-0.29c-6.01,-3.94 -14.07,-2.36 -18.01,3.54c-3.94,6.01 -2.36,14.07 3.54,18.01a13.14,13.14 0 0 0 14.37,0.1a2.31,2.31 0 0 0 0.69,-3.05c-0.1,-0.1 -0.2,-0.29 -0.29,-0.4l0,0c-0.79,-0.58 -1.96,-0.68 -2.75,-0.09l0,0.01z" fill="#999999" id="svg_15"/>
  <path class="cls-2" d="m214.98,299.16l-6.3,0a5.46,5.46 0 0 1 -5.41,-5.4l0,0l0,-14.08a2.17,2.17 0 1 0 -4.33,0l0,0l0,14.08a9.7,9.7 0 0 0 9.74,9.74l6.3,0a2.17,2.17 0 1 0 0,-4.33l0,-0.01l0.01,0z" fill="#999999" id="svg_14"/>
  <path class="cls-2" d="m308.67,281.85l-2.17,0a8.72,8.72 0 0 0 -8.66,8.56l0,10.92a2.17,2.17 0 0 1 -4.33,0l0,-10.92a12.89,12.89 0 0 1 12.99,-12.9l2.17,0a2.17,2.17 0 1 1 0,4.33l0,0.01z" fill="#999999" id="svg_13"/>
  <polygon class="cls-3" fill="#1dade5" id="svg_12" points="240.95821204235835,112.27782072622631 219.11151037001582,125.85825849595949 240.95821204235835,139.3407377505573 240.95821204235835,112.27782072622631" stroke="#000000" stroke-opacity="0"/>
  <polygon class="cls-3" fill="#1dade5" id="svg_11" points="194.5086602045567,124.48240259428894 240.95821204235835,152.92340612122734 240.95821204235835,170.43993942617635 208.18705648942523,150.36315831698266 208.18705648942523,190.51672053537004 194.5086602045567,182.2504648034601 194.5086602045567,124.48240259428894" stroke="#000000" stroke-opacity="0"/>
  <polygon class="cls-4" fill="#0068b6" id="svg_10" points="240.95821204235835,170.43993942617635 208.18705648942523,190.51672053537004 208.18705648942523,150.36315831698266 240.95821204235835,170.43993942617635"/>
  <polygon class="cls-4" fill="#0068b6" id="svg_9" points="240.95821204235835,112.27782072622631 262.80711980353954,125.85825849595949 240.95821204235835,139.3407377505573 240.95821204235835,112.27782072622631" stroke="#000000" stroke-opacity="0"/>
  <polygon class="cls-4" fill="#0068b6" id="svg_8" points="287.4099944810969,124.48240259428894 240.95821204235835,152.92340612122734 240.95821204235835,170.43993942617635 273.73159002552893,150.2651998018473 273.73159002552893,190.51672053537004 287.4099944810969,182.2504648034601 287.4099944810969,124.48240259428894" stroke="#000000" stroke-opacity="0"/>
  <polygon class="cls-3" fill="#1dade5" id="svg_7" points="240.95821204235835,170.43993942617635 273.73159002552893,190.51672053537004 273.73159002552893,150.2651998018473 240.95821204235835,170.43993942617635" stroke="#000000" stroke-opacity="0"/>
  <path class="cls-2" d="m195.3,258.8a2.27,2.27 0 0 1 -4.52,0l0,0l0,-13.08l-5.81,7.67l0,0c-0.1,0.1 -0.1,0.2 -0.2,0.2l-0.2,0.2a2.06,2.06 0 0 1 -2.26,0.3c-0.1,0 -0.1,0 -0.2,-0.1c-0.2,-0.1 -0.29,-0.1 -0.4,-0.29c-0.1,-0.1 -0.2,-0.1 -0.2,-0.2c-0.1,-0.1 -0.1,-0.2 -0.2,-0.29l0,0l-0.1,-0.1c-0.7,-0.88 -2.07,-2.76 -5.42,-7.28l0,12.89l0,0a2.23,2.23 0 0 1 -2.27,2.26a2.23,2.23 0 0 1 -2.27,-2.26l0,0l0,-19.78l0,0a2.23,2.23 0 0 1 2.27,-2.26a2.24,2.24 0 0 1 1.86,0.99l0,0l7.79,10.63l8.06,-10.63l0,0l0.21,-0.2l0.2,-0.15l0.43,-0.27c0.6,-0.29 0.95,-0.34 1.63,-0.27l0.32,0.07c0.58,0.21 1.11,0.35 1.37,1.31l0.05,0.59l-0.19,20.07l0,0l0.03,-0.02z" fill="#999999" id="svg_6"/>
  <path class="cls-2" d="m205.63,258.72l0,0a2.31,2.31 0 0 1 -2.27,2.36a2.23,2.23 0 0 1 -2.26,-2.27l0,0l0,-19.87a2.27,2.27 0 1 1 4.52,0l0,19.78z" fill="#999999" id="svg_5"/>
  <path class="cls-2" d="m231.71,258.72l0,0a2.29,2.29 0 0 1 -2.27,2.27a2.46,2.46 0 0 1 -1.78,-0.79l0,0l-12.79,-15.06l0,13.67a2.27,2.27 0 0 1 -4.51,0l0,-20.86a4897154518460.7,4897154518460.7 0 0 0 0.21,-0.31l0.32,-0.36l0.28,-0.29l0.22,-0.16a4897154518460.54,4897154518460.54 0 0 0 0.29,-0.14l0.44,-0.02l0.78,0.02a2.62,2.62 0 0 1 1.38,0.69l0,0l0.1,0.1l0,0l12.79,15.06l0,-13.68l0,0a2.27,2.27 0 1 1 4.52,0l0,19.88l0,0l0.01,-0.01zl0,0z" fill="#999999" id="svg_4"/>
  <path class="cls-2" d="m257.59,256.55l0,0a2.88,2.88 0 0 1 -0.2,0.89a1.77,1.77 0 0 1 -0.49,0.69l0,0c-6.3,5.91 -16.92,3.94 -20.47,-4.33a13.29,13.29 0 0 1 -0.99,-4.92c0,-11.13 13.39,-16.73 21.35,-9.05l0,0a2.37,2.37 0 0 1 0.69,1.67a2.3,2.3 0 0 1 -3.84,1.67l0,0c-5.12,-4.92 -13.58,-1.28 -13.58,5.8c0,6.69 7.57,10.33 12.99,6.5l0,-3.94l-5.8,0a2.27,2.27 0 0 1 0,-4.52l8.17,0a2.23,2.23 0 0 1 2.27,2.27l0,7.28l-0.1,0l0.01,0.01z" fill="#999999" id="svg_3"/>
  <path class="cls-2" d="m284.36,248.88l0,0c0,6.79 -4.82,12.2 -11.51,12.2l-8.96,0a2.23,2.23 0 0 1 -2.27,-2.27l0,-19.87l0,0a2.23,2.23 0 0 1 2.27,-2.27l8.86,0a11.6,11.6 0 0 1 5.22,1.18a10.53,10.53 0 0 1 3.84,3.34a11.21,11.21 0 0 1 1.57,3.05a10.27,10.27 0 0 1 0.99,4.63l0,0.01l0,-0.01zm-4.52,0a7.99,7.99 0 0 0 -0.69,-3.44a8.42,8.42 0 0 0 -1.78,-2.56a6.09,6.09 0 0 0 -1.67,-1.08a6.42,6.42 0 0 0 -2.85,-0.59l-6.6,0l0,15.26l6.59,0c4.34,0 6.99,-3.44 6.99,-7.58l0.01,0z" fill="#999999" id="svg_2"/>
  <path class="cls-2" d="m310.93,258.72a2.23,2.23 0 0 1 -2.27,2.27a2.3,2.3 0 0 1 -2.07,-1.28l0,0l-2.36,-4.63l-6.2,0a2.27,2.27 0 0 1 0,-4.52l3.84,0l-3.34,-6.69l-8.07,15.84l0,0a2.3,2.3 0 0 1 -2.07,1.28a2.23,2.23 0 0 1 -2.27,-2.27a1.67,1.67 0 0 1 0.29,-0.99l0,0l10.04,-19.68a2.25,2.25 0 0 1 2.17,-1.48a2.35,2.35 0 0 1 2.17,1.48l10.04,19.68l0,0c0,0.3 0.1,0.69 0.1,0.99l-0.01,0z" fill="#999999" id="svg_1"/>
 </g>
</svg>