<?xml version="1.0" encoding="UTF-8" standalone="no"?>
<svg
   width="480"
   height="480"
   data-name="图层 1"
   version="1.1"
   id="svg1"
   sodipodi:docname="splash_logo.svg"
   inkscape:export-filename="..\..\..\..\..\mingda-slicer\resources\images\splash_logo.svg"
   inkscape:export-xdpi="96"
   inkscape:export-ydpi="96"
   inkscape:version="1.3.2 (091e20e, 2023-11-25, custom)"
   viewBox="0 0 480 480"
   xmlns:inkscape="http://www.inkscape.org/namespaces/inkscape"
   xmlns:sodipodi="http://sodipodi.sourceforge.net/DTD/sodipodi-0.dtd"
   xmlns="http://www.w3.org/2000/svg"
   xmlns:svg="http://www.w3.org/2000/svg">
  <defs
     id="defs1" />
  <sodipodi:namedview
     id="namedview1"
     pagecolor="#ffffff"
     bordercolor="#000000"
     borderopacity="0.25"
     inkscape:showpageshadow="2"
     inkscape:pageopacity="0.0"
     inkscape:pagecheckerboard="0"
     inkscape:deskcolor="#d1d1d1"
     showgrid="true"
     inkscape:zoom="1.3546875"
     inkscape:cx="320"
     inkscape:cy="240.27682"
     inkscape:window-width="1920"
     inkscape:window-height="1009"
     inkscape:window-x="1912"
     inkscape:window-y="-8"
     inkscape:window-maximized="1"
     inkscape:current-layer="svg1">
    <inkscape:grid
       id="grid1"
       units="px"
       originx="-110.64194"
       originy="-112.19865"
       spacingx="1"
       spacingy="1"
       empcolor="#0099e5"
       empopacity="0.30196078"
       color="#0099e5"
       opacity="0.14901961"
       empspacing="5"
       dotted="false"
       gridanglex="30"
       gridanglez="30"
       visible="true" />
  </sodipodi:namedview>
  <!-- Created with SVG-edit - https://github.com/SVG-Edit/svgedit-->
  <g
     class="layer"
     id="g1"
     transform="translate(-78.900299,-10.330134)">
    <title
       id="title1">Layer 1</title>
    <path
       class="cls-1"
       d="m 218.67,34.7 h 198.49 a 31.22,31.22 0 0 1 31.24,31.24 v 198.67 a 31.22,31.22 0 0 1 -31.24,31.24 H 218.67 A 31.22,31.22 0 0 1 187.43,264.61 V 65.93 a 31.34,31.34 0 0 1 31.24,-31.24 z"
       fill="#e5e5e5"
       id="svg_20" />
    <path
       class="cls-2"
       d="m 291.64,399.14 a 4.08,4.08 0 0 0 -4.05,4.05 v 0 40.44 a 4.05,4.05 0 1 0 8.09,0 V 403.2 a 3.96,3.96 0 0 0 -4.04,-4.05 z"
       fill="#999999"
       id="svg_19" />
    <path
       class="cls-2"
       d="m 397.68,399.14 h -9.74 a 24.26,24.26 0 1 0 0,48.52 h 9.74 a 4.05,4.05 0 1 0 0,-8.09 h -9.74 a 16.184348,16.184348 0 0 1 -1.1,-32.35 h 10.66 a 4.08,4.08 0 0 0 4.05,-4.05 c 0.18,-2.2 -1.47,-4.04 -3.86,-4.04 v 0 z"
       fill="#999999"
       id="svg_18" />
    <path
       class="cls-2"
       d="m 397.68,419.36 h -11.76 a 4.05,4.05 0 1 0 0,8.09 h 11.76 a 4.08,4.08 0 0 0 4.05,-4.05 3.96,3.96 0 0 0 -4.05,-4.05 v 0 z"
       fill="#999999"
       id="svg_17" />
    <path
       class="cls-2"
       d="m 210.95,447.67 h -19.67 a 3.81,3.81 0 0 1 -3.86,-4.05 3.88,3.88 0 0 1 3.86,-3.86 h 19.67 a 6.16,6.16 0 1 0 0.18,-12.31 h -9.56 a 14.04,14.04 0 0 1 -13.97,-14.34 13.96,13.96 0 0 1 13.98,-13.98 h 15.99 a 3.81,3.81 0 0 1 3.86,4.05 3.88,3.88 0 0 1 -3.86,3.85 h -15.99 a 6.16,6.16 0 1 0 -0.18,12.31 h 9.56 a 14.04,14.04 0 0 1 13.97,14.34 c 0,7.53 -6.24,13.78 -13.97,13.97 l -0.01,0.01 z"
       fill="#999999"
       id="svg_16" />
    <path
       class="cls-2"
       d="m 343.28,436.82 a 16.19,16.19 0 0 1 -17.83,-27.02 16.48,16.48 0 0 1 17.83,0 3.95,3.95 0 0 0 5.15,-0.55 v 0 a 3.89,3.89 0 0 0 0,-5.7 L 347.88,403 c -11.23,-7.35 -26.28,-4.41 -33.63,6.61 -7.35,11.23 -4.41,26.28 6.61,33.63 a 24.53,24.53 0 0 0 26.83,0.18 4.32,4.32 0 0 0 1.28,-5.7 c -0.18,-0.18 -0.37,-0.55 -0.55,-0.74 v 0 c -1.47,-1.09 -3.66,-1.27 -5.14,-0.17 z"
       fill="#999999"
       id="svg_15" />
    <path
       class="cls-2"
       d="m 269.4,439.58 h -11.76 a 10.2,10.2 0 0 1 -10.11,-10.09 v 0 -26.3 a 4.05,4.05 0 1 0 -8.09,0 v 0 26.3 a 18.12,18.12 0 0 0 18.19,18.19 h 11.76 a 4.05,4.05 0 1 0 0,-8.09 v -0.01 z"
       fill="#999999"
       id="svg_14" />
    <path
       class="cls-2"
       d="m 444.36,407.24 h -4.05 a 16.28,16.28 0 0 0 -16.17,15.99 v 20.4 a 4.05,4.05 0 0 1 -8.09,0 v -20.4 a 24.08,24.08 0 0 1 24.26,-24.09 h 4.05 a 4.05,4.05 0 1 1 0,8.09 z"
       fill="#999999"
       id="svg_13" />
    <polygon
       class="cls-3"
       fill="#1dade5"
       id="svg_12"
       points="317.91479,90.572159 277.11606,115.93364 317.91479,141.11218 "
       stroke="#000000"
       stroke-opacity="0" />
    <polygon
       class="cls-3"
       fill="#1dade5"
       id="svg_11"
       points="231.17021,113.36423 317.91479,166.47783 317.91479,199.18998 256.71462,161.69656 256.71462,236.68339 231.17021,221.24614 "
       stroke="#000000"
       stroke-opacity="0" />
    <polygon
       class="cls-4"
       fill="#0068b6"
       id="svg_10"
       points="317.91479,199.18998 256.71462,236.68339 256.71462,161.69656 " />
    <polygon
       class="cls-4"
       fill="#0068b6"
       id="svg_9"
       points="317.91479,90.572159 358.71766,115.93364 317.91479,141.11218 "
       stroke="#000000"
       stroke-opacity="0" />
    <polygon
       class="cls-4"
       fill="#0068b6"
       id="svg_8"
       points="404.66355,113.36423 317.91479,166.47783 317.91479,199.18998 379.11911,161.51363 379.11911,236.68339 404.66355,221.24614 "
       stroke="#000000"
       stroke-opacity="0" />
    <polygon
       class="cls-3"
       fill="#1dade5"
       id="svg_7"
       points="317.91479,199.18998 379.11911,236.68339 379.11911,161.51363 "
       stroke="#000000"
       stroke-opacity="0" />
    <path
       class="cls-2"
       d="m 232.64,364.21 a 4.23,4.23 0 0 1 -8.45,0 v 0 -24.43 l -10.85,14.33 v 0 c -0.18,0.18 -0.18,0.37 -0.37,0.37 l -0.37,0.37 a 3.85,3.85 0 0 1 -4.22,0.56 c -0.18,0 -0.18,0 -0.37,-0.18 -0.37,-0.18 -0.55,-0.18 -0.74,-0.55 -0.18,-0.18 -0.37,-0.18 -0.37,-0.37 -0.18,-0.18 -0.18,-0.37 -0.37,-0.55 v 0 l -0.18,-0.18 c -1.31,-1.65 -3.87,-5.16 -10.12,-13.6 v 24.08 0 a 4.16,4.16 0 0 1 -4.23,4.22 4.16,4.16 0 0 1 -4.23,-4.22 v 0 -36.94 0 a 4.16,4.16 0 0 1 4.23,-4.22 4.18,4.18 0 0 1 3.48,1.84 v 0 l 14.55,19.85 15.05,-19.85 v 0 l 0.39,-0.38 0.37,-0.28 0.81,-0.5 c 1.12,-0.55 1.77,-0.64 3.05,-0.51 l 0.59,0.13 c 1.09,0.4 2.08,0.65 2.55,2.45 l 0.1,1.11 -0.35,37.48 v 0 z"
       fill="#999999"
       id="svg_6" />
    <path
       class="cls-2"
       d="m 251.94,364.05 v 0 a 4.32,4.32 0 0 1 -4.23,4.41 4.16,4.16 0 0 1 -4.22,-4.24 v 0 -37.11 a 4.23,4.23 0 1 1 8.45,0 z"
       fill="#999999"
       id="svg_5" />
    <path
       class="cls-2"
       d="m 300.64,364.05 v 0 a 4.27,4.27 0 0 1 -4.23,4.23 4.6,4.6 0 0 1 -3.33,-1.47 v 0 l -23.89,-28.12 v 25.53 a 4.23,4.23 0 0 1 -8.42,0 v -38.95 a 9.1454408e12,9.1454408e12 0 0 0 0.39,-0.58 l 0.59,-0.68 0.53,-0.54 0.42,-0.29 a 9.1454408e12,9.1454408e12 0 0 0 0.55,-0.27 l 0.83,-0.04 1.45,0.03 a 4.9,4.9 0 0 1 2.57,1.28 v 0 l 0.18,0.18 v 0 l 23.89,28.12 v -25.55 0 a 4.23,4.23 0 1 1 8.45,0 v 37.13 0 z m 0,0 z"
       fill="#999999"
       id="svg_4" />
    <path
       class="cls-2"
       d="m 348.98,360 v 0 a 5.37,5.37 0 0 1 -0.37,1.66 3.3,3.3 0 0 1 -0.92,1.28 v 0 c -11.76,11.03 -31.6,7.35 -38.23,-8.09 a 24.82,24.82 0 0 1 -1.84,-9.19 c 0,-20.79 25,-31.24 39.88,-16.91 v 0 a 4.43,4.43 0 0 1 1.28,3.12 4.29,4.29 0 0 1 -7.17,3.12 v 0 c -9.56,-9.19 -25.36,-2.39 -25.36,10.84 0,12.5 14.14,19.3 24.26,12.13 v -7.35 h -10.84 a 4.23,4.23 0 0 1 0,-8.45 h 15.25 a 4.16,4.16 0 0 1 4.23,4.23 v 13.6 h -0.19 z"
       fill="#999999"
       id="svg_3" />
    <path
       class="cls-2"
       d="m 398.97,345.67 v 0 c 0,12.68 -9.01,22.79 -21.5,22.79 h -16.73 a 4.16,4.16 0 0 1 -4.23,-4.24 v -37.11 0 a 4.16,4.16 0 0 1 4.23,-4.23 h 16.54 a 21.66,21.66 0 0 1 9.74,2.2 19.66,19.66 0 0 1 7.17,6.24 20.93,20.93 0 0 1 2.94,5.7 19.18,19.18 0 0 1 1.84,8.64 v 0.02 z m -8.45,0 a 14.92,14.92 0 0 0 -1.28,-6.43 15.72,15.72 0 0 0 -3.33,-4.78 11.38,11.38 0 0 0 -3.12,-2.02 11.99,11.99 0 0 0 -5.33,-1.1 h -12.32 v 28.49 h 12.31 c 8.1,0 13.05,-6.42 13.05,-14.16 z"
       fill="#999999"
       id="svg_2" />
    <path
       class="cls-2"
       d="m 448.59,364.05 a 4.16,4.16 0 0 1 -4.23,4.23 4.29,4.29 0 0 1 -3.86,-2.39 v 0 l -4.41,-8.64 h -11.58 a 4.23,4.23 0 0 1 0,-8.45 h 7.17 l -6.24,-12.5 -15.08,29.58 v 0 a 4.29,4.29 0 0 1 -3.86,2.39 4.16,4.16 0 0 1 -4.23,-4.23 3.11,3.11 0 0 1 0.55,-1.84 v 0 l 18.75,-36.76 a 4.21,4.21 0 0 1 4.05,-2.76 4.39,4.39 0 0 1 4.05,2.76 l 18.75,36.76 v 0 c 0,0.56 0.18,1.29 0.18,1.85 z"
       fill="#999999"
       id="svg_1" />
  </g>
</svg>
