<?xml version="1.0"?>
<svg width="480" height="480" xmlns="http://www.w3.org/2000/svg" xmlns:svg="http://www.w3.org/2000/svg" data-name="图层 1">
 <!-- Created with SVG-edit - https://github.com/SVG-Edit/svgedit-->

 <g class="layer">
  <title>Layer 1</title>
  <g id="svg_22" transform="translate(170.149 81.4256) matrix(0.535475 0 0 0.535475 -99.4262 -17.6469)">
   <path class="cls-1" d="m218.67,34.7l198.49,0a31.22,31.22 0 0 1 31.24,31.24l0,198.67a31.22,31.22 0 0 1 -31.24,31.24l-198.49,0a31.22,31.22 0 0 1 -31.24,-31.24l0,-198.68a31.34,31.34 0 0 1 31.24,-31.24z" fill="#e5e5e5" id="svg_20"/>
   <path class="cls-2" d="m291.64,399.14a4.08,4.08 0 0 0 -4.05,4.05l0,0l0,40.44a4.05,4.05 0 1 0 8.09,0l0,-40.43a3.96,3.96 0 0 0 -4.04,-4.05z" fill="#999999" id="svg_19"/>
   <path class="cls-2" d="m397.68,399.14l-9.74,0a24.26,24.26 0 1 0 0,48.52l9.74,0a4.05,4.05 0 1 0 0,-8.09l-9.74,0a16.18,16.18 0 0 1 -1.1,-32.35l10.66,0a4.08,4.08 0 0 0 4.05,-4.05c0.18,-2.2 -1.47,-4.04 -3.86,-4.04l0,0z" fill="#999999" id="svg_18"/>
   <path class="cls-2" d="m397.68,419.36l-11.76,0a4.05,4.05 0 1 0 0,8.09l11.76,0a4.08,4.08 0 0 0 4.05,-4.05a3.96,3.96 0 0 0 -4.05,-4.05l0,0z" fill="#999999" id="svg_17"/>
   <path class="cls-2" d="m210.95,447.67l-19.67,0a3.81,3.81 0 0 1 -3.86,-4.05a3.88,3.88 0 0 1 3.86,-3.86l19.67,0a6.16,6.16 0 1 0 0.18,-12.31l-9.56,0a14.04,14.04 0 0 1 -13.97,-14.34a13.96,13.96 0 0 1 13.98,-13.98l15.99,0a3.81,3.81 0 0 1 3.86,4.05a3.88,3.88 0 0 1 -3.86,3.85l-15.99,0a6.16,6.16 0 1 0 -0.18,12.31l9.56,0a14.04,14.04 0 0 1 13.97,14.34c0,7.53 -6.24,13.78 -13.97,13.97l-0.01,0.01z" fill="#999999" id="svg_16"/>
   <path class="cls-2" d="m343.28,436.82a16.19,16.19 0 0 1 -17.83,-27.02a16.48,16.48 0 0 1 17.83,0a3.95,3.95 0 0 0 5.15,-0.55l0,0a3.89,3.89 0 0 0 0,-5.7l-0.55,-0.55c-11.23,-7.35 -26.28,-4.41 -33.63,6.61c-7.35,11.23 -4.41,26.28 6.61,33.63a24.53,24.53 0 0 0 26.83,0.18a4.32,4.32 0 0 0 1.28,-5.7c-0.18,-0.18 -0.37,-0.55 -0.55,-0.74l0,0c-1.47,-1.09 -3.66,-1.27 -5.14,-0.17z" fill="#999999" id="svg_15"/>
   <path class="cls-2" d="m269.4,439.58l-11.76,0a10.2,10.2 0 0 1 -10.11,-10.09l0,0l0,-26.3a4.05,4.05 0 1 0 -8.09,0l0,0l0,26.3a18.12,18.12 0 0 0 18.19,18.19l11.76,0a4.05,4.05 0 1 0 0,-8.09l0,-0.01z" fill="#999999" id="svg_14"/>
   <path class="cls-2" d="m444.36,407.24l-4.05,0a16.28,16.28 0 0 0 -16.17,15.99l0,20.4a4.05,4.05 0 0 1 -8.09,0l0,-20.4a24.08,24.08 0 0 1 24.26,-24.09l4.05,0a4.05,4.05 0 1 1 0,8.09l0,0.01z" fill="#999999" id="svg_13"/>
   <polygon class="cls-3" fill="#1dade5" id="svg_12" points="317.9147880247862,90.57215908711805 277.1160631490845,115.93363971060171 317.9147880247862,141.11218404897045 317.9147880247862,90.57215908711805" stroke="#000000" stroke-opacity="0"/>
   <polygon class="cls-3" fill="#1dade5" id="svg_11" points="231.17020613467224,113.36422739116597 317.9147880247862,166.477826352404 317.9147880247862,199.18997569179191 256.71461987125866,161.6965636119112 256.71461987125866,236.68338777167264 231.17020613467224,221.24614351945456 231.17020613467224,113.36422739116597" stroke="#000000" stroke-opacity="0"/>
   <polygon class="cls-4" fill="#0068b6" id="svg_10" points="317.9147880247862,199.18997569179191 256.71461987125866,236.68338777167264 256.71461987125866,161.6965636119112 317.9147880247862,199.18997569179191"/>
   <polygon class="cls-4" fill="#0068b6" id="svg_9" points="317.9147880247862,90.57215908711805 358.71766189238923,115.93363971060171 317.9147880247862,141.11218404897045 317.9147880247862,90.57215908711805" stroke="#000000" stroke-opacity="0"/>
   <polygon class="cls-4" fill="#0068b6" id="svg_8" points="404.6635474549109,113.36422739116597 317.9147880247862,166.477826352404 317.9147880247862,199.18997569179191 379.11910517021505,161.51362732679627 379.11910517021505,236.68338777167264 404.6635474549109,221.24614351945456 404.6635474549109,113.36422739116597" stroke="#000000" stroke-opacity="0"/>
   <polygon class="cls-3" fill="#1dade5" id="svg_7" points="317.9147880247862,199.18997569179191 379.11910517021505,236.68338777167264 379.11910517021505,161.51362732679627 317.9147880247862,199.18997569179191" stroke="#000000" stroke-opacity="0"/>
   <path class="cls-2" d="m232.64,364.21a4.23,4.23 0 0 1 -8.45,0l0,0l0,-24.43l-10.85,14.33l0,0c-0.18,0.18 -0.18,0.37 -0.37,0.37l-0.37,0.37a3.85,3.85 0 0 1 -4.22,0.56c-0.18,0 -0.18,0 -0.37,-0.18c-0.37,-0.18 -0.55,-0.18 -0.74,-0.55c-0.18,-0.18 -0.37,-0.18 -0.37,-0.37c-0.18,-0.18 -0.18,-0.37 -0.37,-0.55l0,0l-0.18,-0.18c-1.31,-1.65 -3.87,-5.16 -10.12,-13.6l0,24.08l0,0a4.16,4.16 0 0 1 -4.23,4.22a4.16,4.16 0 0 1 -4.23,-4.22l0,0l0,-36.94l0,0a4.16,4.16 0 0 1 4.23,-4.22a4.18,4.18 0 0 1 3.48,1.84l0,0l14.55,19.85l15.05,-19.85l0,0l0.39,-0.38l0.37,-0.28l0.81,-0.5c1.12,-0.55 1.77,-0.64 3.05,-0.51l0.59,0.13c1.09,0.4 2.08,0.65 2.55,2.45l0.1,1.11l-0.35,37.48l0,0z" fill="#999999" id="svg_6"/>
   <path class="cls-2" d="m251.94,364.05l0,0a4.32,4.32 0 0 1 -4.23,4.41a4.16,4.16 0 0 1 -4.22,-4.24l0,0l0,-37.11a4.23,4.23 0 1 1 8.45,0l0,36.94z" fill="#999999" id="svg_5"/>
   <path class="cls-2" d="m300.64,364.05l0,0a4.27,4.27 0 0 1 -4.23,4.23a4.6,4.6 0 0 1 -3.33,-1.47l0,0l-23.89,-28.12l0,25.53a4.23,4.23 0 0 1 -8.42,0l0,-38.95a9145440815228.33,9145440815228.33 0 0 0 0.39,-0.58l0.59,-0.68l0.53,-0.54l0.42,-0.29a9145440815228.04,9145440815228.04 0 0 0 0.55,-0.27l0.83,-0.04l1.45,0.03a4.9,4.9 0 0 1 2.57,1.28l0,0l0.18,0.18l0,0l23.89,28.12l0,-25.55l0,0a4.23,4.23 0 1 1 8.45,0l0,37.13l0,0zl0,0z" fill="#999999" id="svg_4"/>
   <path class="cls-2" d="m348.98,360l0,0a5.37,5.37 0 0 1 -0.37,1.66a3.3,3.3 0 0 1 -0.92,1.28l0,0c-11.76,11.03 -31.6,7.35 -38.23,-8.09a24.82,24.82 0 0 1 -1.84,-9.19c0,-20.79 25,-31.24 39.88,-16.91l0,0a4.43,4.43 0 0 1 1.28,3.12a4.29,4.29 0 0 1 -7.17,3.12l0,0c-9.56,-9.19 -25.36,-2.39 -25.36,10.84c0,12.5 14.14,19.3 24.26,12.13l0,-7.35l-10.84,0a4.23,4.23 0 0 1 0,-8.45l15.25,0a4.16,4.16 0 0 1 4.23,4.23l0,13.6l-0.19,0z" fill="#999999" id="svg_3"/>
   <path class="cls-2" d="m398.97,345.67l0,0c0,12.68 -9.01,22.79 -21.5,22.79l-16.73,0a4.16,4.16 0 0 1 -4.23,-4.24l0,-37.11l0,0a4.16,4.16 0 0 1 4.23,-4.23l16.54,0a21.66,21.66 0 0 1 9.74,2.2a19.66,19.66 0 0 1 7.17,6.24a20.93,20.93 0 0 1 2.94,5.7a19.18,19.18 0 0 1 1.84,8.64l0,0.02zm-8.45,0a14.92,14.92 0 0 0 -1.28,-6.43a15.72,15.72 0 0 0 -3.33,-4.78a11.38,11.38 0 0 0 -3.12,-2.02a11.99,11.99 0 0 0 -5.33,-1.1l-12.32,0l0,28.49l12.31,0c8.1,0 13.05,-6.42 13.05,-14.16l0.02,0z" fill="#999999" id="svg_2"/>
   <path class="cls-2" d="m448.59,364.05a4.16,4.16 0 0 1 -4.23,4.23a4.29,4.29 0 0 1 -3.86,-2.39l0,0l-4.41,-8.64l-11.58,0a4.23,4.23 0 0 1 0,-8.45l7.17,0l-6.24,-12.5l-15.08,29.58l0,0a4.29,4.29 0 0 1 -3.86,2.39a4.16,4.16 0 0 1 -4.23,-4.23a3.11,3.11 0 0 1 0.55,-1.84l0,0l18.75,-36.76a4.21,4.21 0 0 1 4.05,-2.76a4.39,4.39 0 0 1 4.05,2.76l18.75,36.76l0,0c0,0.56 0.18,1.29 0.18,1.85z" fill="#999999" id="svg_1"/>
  </g>
 </g>
</svg>