<?xml version="1.0" encoding="UTF-8" standalone="no"?>
<svg
   width="20"
   height="20"
   viewBox="0 0 20 20"
   fill="none"
   version="1.1"
   id="svg1"
   sodipodi:docname="toolbar_ad.svg"
   inkscape:version="1.3.2 (091e20e, 2023-11-25, custom)"
   xmlns:inkscape="http://www.inkscape.org/namespaces/inkscape"
   xmlns:sodipodi="http://sodipodi.sourceforge.net/DTD/sodipodi-0.dtd"
   xmlns="http://www.w3.org/2000/svg"
   xmlns:svg="http://www.w3.org/2000/svg">
  <defs
     id="defs1" />
  <sodipodi:namedview
     id="namedview1"
     pagecolor="#ffffff"
     bordercolor="#000000"
     borderopacity="0.25"
     inkscape:showpageshadow="2"
     inkscape:pageopacity="0.0"
     inkscape:pagecheckerboard="0"
     inkscape:deskcolor="#d1d1d1"
     inkscape:zoom="20.325"
     inkscape:cx="21.131611"
     inkscape:cy="9.2250922"
     inkscape:window-width="1920"
     inkscape:window-height="1009"
     inkscape:window-x="1912"
     inkscape:window-y="-8"
     inkscape:window-maximized="1"
     inkscape:current-layer="svg1" />
  <path
     id="text2"
     style="font-family:Constantia;-inkscape-font-specification:Constantia;fill:#000000;stroke-width:7.416;stroke-miterlimit:2.8;stroke-dasharray:7.416, 7.416;paint-order:fill markers stroke"
     d="m 14.478516,6.2265625 c -0.382813,0 -0.75586,0.00977 -1.119141,0.029297 -0.363281,0.019531 -0.740235,0.029297 -1.130859,0.029297 -0.476563,0 -0.966797,-0.00781 -1.470704,-0.023437 l 0.01172,0.2519531 0.726563,0.2285156 c 0.08982,0.03125 0.136691,0.097656 0.140625,0.1992187 0.0039,0.1289062 0.0059,0.2734378 0.0059,0.4335938 0.0039,0.1601561 0.0078,0.339844 0.0078,0.5390625 v 4.7519535 c 0,0.234374 -0.0039,0.449218 -0.0078,0.644531 0,0.191406 -0.0019,0.365234 -0.0059,0.521484 -0.0039,0.08985 -0.05664,0.150394 -0.158203,0.181641 l -0.720704,0.216797 0.02344,0.251953 c 0.496094,-0.01172 0.980469,-0.01758 1.453125,-0.01758 0.359374,0 0.6875,0.0059 0.984375,0.01758 0.296874,0.01172 0.634766,0.01758 1.013672,0.01758 1.378904,0 2.449219,-0.398439 3.210937,-1.195312 0.765625,-0.800781 1.148438,-1.92383 1.148438,-3.3691411 0,-1.2265613 -0.343751,-2.1503912 -1.03125,-2.7714844 -0.687499,-0.6249994 -1.714845,-0.9375 -3.082031,-0.9375 z m -0.375,0.4980469 c 1.109373,0 1.919922,0.2949225 2.43164,0.8847656 0.511718,0.5859369 0.767578,1.4882827 0.767578,2.707031 0,1.253906 -0.269532,2.185548 -0.808593,2.794922 -0.539063,0.605468 -1.32422,0.908203 -2.355469,0.908203 -0.222657,0 -0.445313,-0.0039 -0.667969,-0.01172 -0.21875,-0.01172 -0.44336,-0.03321 -0.673828,-0.06445 V 6.7773438 c 0.269531,-0.019531 0.509766,-0.033203 0.720703,-0.041016 0.214844,-0.00781 0.410156,-0.011719 0.585938,-0.011719 z M 6.3367881,6.0157719 8.9383506,13.181787 q 0.1464843,0.404297 0.2636718,0.550782 0.1230469,0.140625 0.3457032,0.210937 l 0.5507814,0.164063 0.01172,0.251953 q -0.7675786,-0.01758 -1.4238286,-0.01758 -0.6679687,0 -1.5761718,0.01758 l -0.023437,-0.251953 0.5566406,-0.164063 q 0.1171875,-0.04101 0.1640625,-0.08789 0.052734,-0.05274 0.052734,-0.158204 0,-0.117187 -0.064453,-0.304687 -0.058594,-0.193359 -0.1699218,-0.509766 L 7.0750693,11.312647 H 4.2508506 L 3.6356162,12.8771 q -0.1230469,0.328125 -0.1933594,0.521484 -0.070312,0.19336 -0.070312,0.304688 0,0.09961 0.052734,0.152344 0.058594,0.04687 0.1699219,0.08203 l 0.5449218,0.158203 0.011719,0.263672 q -0.8320313,-0.01758 -1.359375,-0.01758 -0.5273438,0 -1.1777344,0.01758 L 1.5848351,14.107568 2.176632,13.925927 Q 2.3992883,13.855617 2.504757,13.70913 2.6102258,13.562646 2.739132,13.252099 L 5.7332724,6.1036625 Z M 4.4676474,10.779444 H 6.8817099 L 5.7391318,7.5509281 Z" />
</svg>
